<?xml version="1.0" encoding="UTF-8" ?>
<!-- Icon-only Plasmatic mark (geometry from src/assets/logo.svg). The logo's
     dark-navy (#063b4c) parts are recolored bright green/white so the mark
     stays legible on dark browser tabs as well as light ones. -->
<svg
    id="Layer_1"
    data-name="Layer 1"
    xmlns="http://www.w3.org/2000/svg"
    viewBox="0 0 200 200"
>
  <g>
    <path fill="#ffffff" d="M65.3,122.4v-5.03l-4.36-2.51-15.53,8.96c1.28,2.62,2.73,5.14,4.36,7.54l15.53-8.96h0Z" />
    <path fill="#119fcd" d="M39.21,92.25c-.09,1.34-.15,2.7-.15,4.06,0,2.05.11,4.08.3,6.09l25.93,14.97v-10.06l-26.08-15.06Z" />
    <path fill="#119fcd" d="M74.01,117.37v5.03l53.69,31c3.1-1.41,6.07-3.06,8.88-4.93l-58.21-33.61-4.36,2.52Z" />
    <path fill="#ffffff" d="M138.24,75.25l4.36,2.52,15.53-8.96c-1.28-2.62-2.73-5.14-4.36-7.54l-15.53,8.96v5.03Z" />
    <path fill="#ffd167" d="M164.17,90.23l-21.57-12.46h0s-8.71,5.03-8.71,5.03l30.44,17.57c.09-1.34.15-2.7.15-4.06,0-2.05-.11-4.08-.3-6.09Z" />
    <path fill="#4cbd97" d="M74.01,82.47l-8.71-5.03v69.86c2.75,1.97,5.66,3.73,8.71,5.24v-70.06Z" />
    <polygon fill="#4cbd97" points="74.01 117.37 74.01 107.31 125.18 77.77 133.89 82.8 74.01 117.37" />
    <path fill="#4cbd97" d="M129.53,70.22l-53.66-31.01c-3.1,1.41-6.07,3.05-8.88,4.93l58.19,33.63,8.67,5.01.03.02,8.71-5.03-13.07-7.55Z" />
    <polygon fill="#ef476f" points="133.89 82.8 133.89 82.8 129.53 85.32 129.53 114.54 138.24 119.58 138.24 85.32 133.89 82.8 133.89 82.8" />
    <path fill="#ef476f" d="M129.53,40.09v30.13l8.71,5.03v-29.93c-2.75-1.97-5.66-3.73-8.71-5.24Z" />
  </g>
</svg>
