<!-- Source for public/og-image.png (1200x630 social share card).
     Edit here, then regenerate: node tools/gen-og-image.mjs
     The logo mark's navy (#063b4c) parts are recolored bright (green/white)
     so the mark reads on the near-black background. -->
<svg xmlns="http://www.w3.org/2000/svg" width="1200" height="630" viewBox="0 0 1200 630" role="img" aria-label="Plasmatic — Systems for modern software">
    <defs>
        <linearGradient id="bg" x1="0" y1="0" x2="1" y2="1">
            <stop offset="0" stop-color="#07111A" />
            <stop offset="1" stop-color="#0A1A26" />
        </linearGradient>
        <radialGradient id="glow" cx="0.82" cy="0.18" r="0.7">
            <stop offset="0" stop-color="#119FCD" stop-opacity="0.25" />
            <stop offset="1" stop-color="#119FCD" stop-opacity="0" />
        </radialGradient>
    </defs>
    <rect width="1200" height="630" fill="url(#bg)" />
    <rect width="1200" height="630" fill="url(#glow)" />

    <!-- Logo mark -->
    <svg x="84" y="182" width="132" height="132" viewBox="32 32 140 140">
        <path fill="#ffffff" d="M65.3,122.4v-5.03l-4.36-2.51-15.53,8.96c1.28,2.62,2.73,5.14,4.36,7.54l15.53-8.96h0Z" />
        <path fill="#119fcd" d="M39.21,92.25c-.09,1.34-.15,2.7-.15,4.06,0,2.05.11,4.08.3,6.09l25.93,14.97v-10.06l-26.08-15.06Z" />
        <path fill="#119fcd" d="M74.01,117.37v5.03l53.69,31c3.1-1.41,6.07-3.06,8.88-4.93l-58.21-33.61-4.36,2.52Z" />
        <path fill="#ffffff" d="M138.24,75.25l4.36,2.52,15.53-8.96c-1.28-2.62-2.73-5.14-4.36-7.54l-15.53,8.96v5.03Z" />
        <path fill="#ffd167" d="M164.17,90.23l-21.57-12.46h0s-8.71,5.03-8.71,5.03l30.44,17.57c.09-1.34.15-2.7.15-4.06,0-2.05-.11-4.08-.3-6.09Z" />
        <path fill="#4cbd97" d="M74.01,82.47l-8.71-5.03v69.86c2.75,1.97,5.66,3.73,8.71,5.24v-70.06Z" />
        <polygon fill="#4cbd97" points="74.01 117.37 74.01 107.31 125.18 77.77 133.89 82.8 74.01 117.37" />
        <path fill="#4cbd97" d="M129.53,70.22l-53.66-31.01c-3.1,1.41-6.07,3.05-8.88,4.93l58.19,33.63,8.67,5.01.03.02,8.71-5.03-13.07-7.55Z" />
        <polygon fill="#ef476f" points="133.89 82.8 133.89 82.8 129.53 85.32 129.53 114.54 138.24 119.58 138.24 85.32 133.89 82.8 133.89 82.8" />
        <path fill="#ef476f" d="M129.53,40.09v30.13l8.71,5.03v-29.93c-2.75-1.97-5.66-3.73-8.71-5.24Z" />
    </svg>

    <text x="224" y="272" font-family="Montserrat, Arial, sans-serif" font-size="92" font-weight="800" fill="#ECF4F8">Plasmatic</text>
    <text x="86" y="392" font-family="DM Sans, Arial, sans-serif" font-size="40" fill="#7FAFC0">Systems for modern software</text>
    <text x="86" y="476" font-family="DM Sans, Arial, sans-serif" font-size="28" fill="#5F8DA0">Declarative runtimes · decouple · execute · govern</text>
    <text x="86" y="566" font-family="DM Mono, monospace" font-size="24" fill="#4CBD97">goplasmatic.io</text>
</svg>
