<?xml version="1.0" encoding="UTF-8"?>
<svg id="Layer_1" xmlns="http://www.w3.org/2000/svg" version="1.1" viewBox="0 0 603.8 192.9">
  <!-- Generator: Adobe Illustrator 29.8.2, SVG Export Plug-In . SVG Version: 2.1.1 Build 3)  -->
  <defs>
    <style>
      .st0 {
        fill: #fff;
      }

      .st1 {
        fill: #063b4c;
      }

      .st2 {
        fill: #4cbd97;
      }

      .st3 {
        fill: #119fcd;
      }

      .st4 {
        fill: #ef476f;
      }

      .st5 {
        fill: #ffd167;
      }
    </style>
  </defs>
  <g>
    <path class="st0" d="M65.3,122.4v-5l-4.4-2.5-15.5,9c1.3,2.6,2.7,5.1,4.4,7.5l15.5-9h0Z"/>
    <path class="st3" d="M39.2,92.2c0,1.3-.2,2.7-.2,4.1,0,2.1.1,4.1.3,6.1l25.9,15v-10.1s-26.1-15.1-26.1-15.1Z"/>
    <path class="st3" d="M74,117.4v5l53.7,31c3.1-1.4,6.1-3.1,8.9-4.9l-58.2-33.6-4.4,2.5h0Z"/>
    <path class="st0" d="M138.2,75.2l4.4,2.5,15.5-9c-1.3-2.6-2.7-5.1-4.4-7.5l-15.5,9v5h0Z"/>
    <path class="st5" d="M164.2,90.2l-21.6-12.5h0l-8.7,5,30.4,17.6c0-1.3.1-2.7.1-4.1,0-2.1-.1-4.1-.3-6.1h0Z"/>
    <polygon class="st1" points="133.9 82.8 133.9 82.8 133.9 82.8 133.9 82.8"/>
    <path class="st2" d="M74,82.5l-8.7-5v69.9c2.8,2,5.7,3.7,8.7,5.2v-70.1h0Z"/>
    <polygon class="st2" points="74 117.4 74 107.3 125.2 77.8 133.9 82.8 74 117.4"/>
    <path class="st2" d="M129.5,70.2l-53.7-31c-3.1,1.4-6.1,3-8.9,4.9l58.2,33.6,8.7,5h0s8.7-5,8.7-5l-13.1-7.6h0Z"/>
    <polygon class="st4" points="133.9 82.8 133.9 82.8 129.5 85.3 129.5 114.5 138.2 119.6 138.2 85.3 133.9 82.8 133.9 82.8"/>
    <path class="st4" d="M129.5,40.1v30.1l8.7,5v-29.9c-2.8-2-5.7-3.7-8.7-5.2h0Z"/>
  </g>
  <g>
    <path class="st2" d="M225.6,69.5h-22.1v55.2h7.9v-20.9h14.2c10.5,0,16.6-7.7,16.6-17s-6.1-17.4-16.6-17.4ZM224,97.5h-12.5v-21.5h12.5c6.2,0,10.1,4.4,10.1,10.8s-3.8,10.7-10.1,10.7Z"/>
    <rect class="st2" x="251.4" y="67.7" width="7.6" height="57"/>
    <path class="st2" d="M302.3,90.7c-3.8-5.4-9-7.2-14.3-7.2-11.8,0-19.6,9.3-19.6,20.6s7.7,20.6,19.6,20.6,10.5-1.8,14.3-7.2v6.3h7.6v-39.5h-7.6v6.3h0ZM289,117.9c-8.2,0-12.9-6.3-12.9-13.8s4.7-13.8,12.9-13.8,13.4,5.8,13.5,13.8c0,8-5.5,13.8-13.5,13.8Z"/>
    <path class="st2" d="M338.3,101.8l-5.7-1.9c-2.4-.8-4.7-2.1-4.7-4.7s2.3-5.1,5.8-5.1,4.9.8,6.1,4.3l6.8-1.5c-2.2-7.1-7.6-9.4-13.2-9.4s-13,5.1-13,11.8,3.4,8.8,9.7,10.7l5.3,1.8c2.8.9,5,2.3,5,5s-2.8,5.4-6.8,5.4-7.6-2.3-8.5-5.4l-6.8,1.7c1.8,6.8,8.3,10.3,15.2,10.3s14.2-4.3,14.2-11.8-2-8.8-9.5-11.1h0Z"/>
    <path class="st2" d="M403.1,84.4c-4.7,0-10.2,1.4-13.4,8.3-3.1-7-8.8-8.3-12.5-8.3-5.8,0-11,3-12.6,8.8v-7.9h-7.6v39.5h7.6v-18.3c0-12.5,7.1-15.2,11.2-15.2s8,2.9,8,11.3v22.2h7.6v-19.2c.4-12.1,7.5-14.4,11.2-14.4s8,2.9,8,11.3v22.2h7.6v-22.2c0-12.7-5.9-18.1-15.2-18.1h0Z"/>
    <path class="st2" d="M460.9,90.7c-3.8-5.4-9-7.2-14.3-7.2-11.8,0-19.6,9.3-19.6,20.6s7.7,20.6,19.6,20.6,10.5-1.8,14.3-7.2v6.3h7.6v-39.5h-7.6v6.3h0ZM447.5,117.9c-8.2,0-12.9-6.3-12.9-13.8s4.7-13.8,12.9-13.8,13.4,5.8,13.5,13.8c0,8-5.5,13.8-13.5,13.8Z"/>
    <path class="st2" d="M499.1,110.4c.5,1.2.6,2.7.6,3.2,0,2.9-2.4,4.3-4.8,4.3s-4.7-1.7-4.7-6.1v-21.5h12.5v-6h-12.5v-11.4h-5.9l-1.7,11.4h-6.5v6h6.5v21c0,10.1,6.1,13.3,12.3,13.3s11.7-4.4,11.7-10c0,0,0-2.7-.7-4.3h-6.7Z"/>
    <rect class="st2" x="514" y="85.3" width="7.7" height="39.4"/>
    <path class="st2" d="M517.8,67.2c-3,0-5.3,2.4-5.3,5.4s2.3,5.3,5.3,5.3,5.4-2.3,5.4-5.3-2.4-5.4-5.4-5.4Z"/>
    <path class="st2" d="M553.6,117.9c-8.5,0-14.8-5.7-14.8-13.8s6.3-13.8,14.8-13.8,6,0,10.2,3.2l3.6-5.2c-5.3-3.9-10.6-4.8-14.1-4.8-14.4,0-22.2,9.5-22.2,21.1s8.2,20.1,22.2,20.1,8.8-.9,14.1-4.8l-3.6-5.2c-4.2,3.2-9.2,3.2-10.2,3.2h0Z"/>
  </g>
</svg>