<?xml version="1.0" encoding="UTF-8"?>
<svg id="Layer_1" data-name="Layer 1" xmlns="http://www.w3.org/2000/svg" viewBox="0 0 603.82 192.86">
  <defs>
    <style>
      .cls-1 {
        fill: #4cbd97;
      }

      .cls-2 {
        fill: #063b4c;
      }

      .cls-3 {
        fill: #ef476f;
      }

      .cls-4 {
        fill: #119fcd;
      }

      .cls-5 {
        fill: #ffd167;
      }
    </style>
  </defs>
  <g>
    <path class="cls-1" d="M65.3,122.4v-5.03l-4.36-2.51-15.53,8.96c1.28,2.62,2.73,5.14,4.36,7.54l15.53-8.96h0Z"/>
    <path class="cls-4" d="M39.21,92.25c-.09,1.34-.15,2.7-.15,4.06,0,2.05.11,4.08.3,6.09l25.93,14.97v-10.06l-26.08-15.06Z"/>
    <path class="cls-4" d="M74.01,117.37v5.03l53.69,31c3.1-1.41,6.07-3.06,8.88-4.93l-58.21-33.61-4.36,2.52Z"/>
    <path class="cls-1" d="M138.24,75.25l4.36,2.52,15.53-8.96c-1.28-2.62-2.73-5.14-4.36-7.54l-15.53,8.96v5.03Z"/>
    <path class="cls-5" d="M164.17,90.23l-21.57-12.46h0s-8.71,5.03-8.71,5.03l30.44,17.57c.09-1.34.15-2.7.15-4.06,0-2.05-.11-4.08-.3-6.09Z"/>
    <rect class="cls-2" x="133.89" y="82.8" width="0" height="0"/>
    <path class="cls-2" d="M74.01,82.47l-8.71-5.03v69.86c2.75,1.97,5.66,3.73,8.71,5.24v-70.06Z"/>
    <polygon class="cls-2" points="74.01 117.37 74.01 107.31 125.18 77.77 133.89 82.8 74.01 117.37"/>
    <path class="cls-2" d="M129.53,70.22l-53.66-31.01c-3.1,1.41-6.07,3.05-8.88,4.93l58.19,33.63,8.67,5.01.03.02,8.71-5.03-13.07-7.55Z"/>
    <polygon class="cls-3" points="133.89 82.8 133.89 82.8 129.53 85.32 129.53 114.54 138.24 119.58 138.24 85.32 133.89 82.8 133.89 82.8"/>
    <path class="cls-3" d="M129.53,40.09v30.13l8.71,5.03v-29.93c-2.75-1.97-5.66-3.73-8.71-5.24Z"/>
  </g>
  <g>
    <path class="cls-2" d="M225.63,69.5h-22.09v55.23h7.89v-20.91h14.2c10.49,0,16.65-7.65,16.65-16.96s-6.08-17.36-16.65-17.36ZM223.97,97.51h-12.54v-21.54h12.54c6.23,0,10.1,4.42,10.1,10.81s-3.79,10.73-10.1,10.73Z"/>
    <rect class="cls-2" x="251.35" y="67.68" width="7.65" height="57.05"/>
    <path class="cls-2" d="M302.31,90.72c-3.79-5.37-8.99-7.18-14.28-7.18-11.84,0-19.57,9.31-19.57,20.59s7.73,20.59,19.57,20.59c5.29,0,10.49-1.81,14.28-7.18v6.31h7.65v-39.45h-7.65v6.31ZM288.98,117.94c-8.21,0-12.86-6.31-12.86-13.81s4.66-13.81,12.86-13.81,13.41,5.84,13.49,13.81c-.08,7.97-5.52,13.81-13.49,13.81Z"/>
    <path class="cls-2" d="M338.29,101.77l-5.68-1.89c-2.37-.79-4.73-2.13-4.73-4.73,0-2.84,2.29-5.05,5.84-5.05,2.45,0,4.89.79,6.15,4.34l6.79-1.5c-2.21-7.1-7.65-9.39-13.18-9.39-7.81,0-13.02,5.05-13.02,11.76,0,5.44,3.39,8.84,9.7,10.73l5.29,1.81c2.76.95,4.97,2.29,4.97,4.97,0,3.08-2.84,5.36-6.79,5.36s-7.57-2.29-8.52-5.44l-6.79,1.66c1.81,6.79,8.28,10.34,15.23,10.34,7.65,0,14.2-4.34,14.2-11.84,0-4.18-1.97-8.84-9.47-11.13Z"/>
    <path class="cls-2" d="M403.14,84.41c-4.73,0-10.18,1.42-13.41,8.28-3.08-7.02-8.76-8.28-12.55-8.28-5.84,0-10.97,3-12.62,8.76v-7.89h-7.65v39.45h7.65v-18.31c0-12.47,7.1-15.23,11.2-15.23s8.05,2.92,8.05,11.28v22.25h7.65v-19.17c.4-12.07,7.5-14.36,11.2-14.36,4.18,0,8.05,2.92,8.05,11.28v22.25h7.65v-22.25c0-12.7-5.92-18.07-15.23-18.07Z"/>
    <path class="cls-2" d="M460.89,90.72c-3.79-5.37-8.99-7.18-14.28-7.18-11.83,0-19.57,9.31-19.57,20.59s7.73,20.59,19.57,20.59c5.29,0,10.49-1.81,14.28-7.18v6.31h7.65v-39.45h-7.65v6.31ZM447.55,117.94c-8.21,0-12.86-6.31-12.86-13.81s4.66-13.81,12.86-13.81,13.41,5.84,13.49,13.81c-.08,7.97-5.52,13.81-13.49,13.81Z"/>
    <path class="cls-2" d="M499.15,110.45c.55,1.18.63,2.68.63,3.23,0,2.92-2.37,4.34-4.81,4.34-2.6,0-4.73-1.74-4.73-6.08v-21.54h12.54v-6h-12.54v-11.36h-5.92l-1.74,11.36h-6.47v6h6.47v20.99c0,10.1,6.08,13.33,12.31,13.33,7.65,0,11.68-4.42,11.68-10.02,0,0,0-2.68-.71-4.26h-6.71Z"/>
    <path class="cls-2" d="M517.76,67.21c-3,0-5.29,2.37-5.29,5.37s2.29,5.29,5.29,5.29,5.37-2.29,5.37-5.29-2.37-5.37-5.37-5.37Z"/>
    <rect class="cls-2" x="513.98" y="85.28" width="7.65" height="39.45"/>
    <path class="cls-2" d="M553.58,117.94c-8.52,0-14.83-5.68-14.83-13.81s6.31-13.81,14.83-13.81c1.03,0,6,.08,10.18,3.23l3.63-5.21c-5.29-3.95-10.57-4.81-14.12-4.81-14.36,0-22.17,9.47-22.17,21.07s8.21,20.12,22.17,20.12c3.55,0,8.84-.87,14.12-4.81l-3.63-5.21c-4.18,3.16-9.15,3.23-10.18,3.23Z"/>
  </g>
</svg>